<svg width="4" height="16" viewBox="0 0 4 16" fill="#637280" xmlns="http://www.w3.org/2000/svg">
    <path fill-rule="evenodd" clip-rule="evenodd" d="M4 14.2222C4 15.204 3.10457 16 2 16C0.89543 16 0 15.204 0 14.2222C0 13.2403 0.89543 12.4443 2 12.4443C3.10457 12.4443 4 13.2403 4 14.2222ZM4 7.99978C4 8.98162 3.10457 9.77757 2 9.77757C0.89543 9.77757 0 8.98162 0 7.99978C0 7.01793 0.89543 6.22199 2 6.22199C3.10457 6.22199 4 7.01793 4 7.99978ZM2 3.55525C3.10457 3.55525 4 2.75938 4 1.77762C4 0.79587 3.10457 0 2 0C0.89543 0 0 0.79587 0 1.77762C0 2.75938 0.89543 3.55525 2 3.55525Z" fill="fill"/>
</svg>
